<mxfile host="Electron" agent="Mozilla/5.0 (Windows NT 10.0; Win64; x64) AppleWebKit/537.36 (KHTML, like Gecko) draw.io/26.0.16 Chrome/132.0.6834.196 Electron/34.2.0 Safari/537.36" version="26.0.16">
  <diagram id="C5RBs43oDa-KdzZeNtuy" name="Page-1">
    <mxGraphModel dx="3722" dy="1038" grid="1" gridSize="10" guides="1" tooltips="1" connect="1" arrows="1" fold="1" page="1" pageScale="1" pageWidth="827" pageHeight="1169" math="0" shadow="0">
      <root>
        <mxCell id="WIyWlLk6GJQsqaUBKTNV-0" />
        <mxCell id="WIyWlLk6GJQsqaUBKTNV-1" parent="WIyWlLk6GJQsqaUBKTNV-0" />
        <mxCell id="nLpi9SXfjAmbnUqDCLWk-173" value="" style="endArrow=classic;html=1;rounded=0;exitX=0.5;exitY=1;exitDx=0;exitDy=0;entryX=0.5;entryY=0;entryDx=0;entryDy=0;shadow=1;" parent="WIyWlLk6GJQsqaUBKTNV-1" source="nLpi9SXfjAmbnUqDCLWk-103" target="nLpi9SXfjAmbnUqDCLWk-170" edge="1">
          <mxGeometry width="50" height="50" relative="1" as="geometry">
            <mxPoint x="-1245" y="410" as="sourcePoint" />
            <mxPoint x="-1195" y="360" as="targetPoint" />
            <Array as="points">
              <mxPoint x="-1370" y="350" />
              <mxPoint x="-1370" y="400" />
              <mxPoint x="-1225" y="400" />
            </Array>
          </mxGeometry>
        </mxCell>
        <mxCell id="nLpi9SXfjAmbnUqDCLWk-180" value="" style="endArrow=classic;html=1;rounded=0;exitX=0.5;exitY=0.88;exitDx=0;exitDy=0;exitPerimeter=0;entryX=0.5;entryY=0;entryDx=0;entryDy=0;" parent="WIyWlLk6GJQsqaUBKTNV-1" source="nLpi9SXfjAmbnUqDCLWk-93" target="nLpi9SXfjAmbnUqDCLWk-154" edge="1">
          <mxGeometry width="50" height="50" relative="1" as="geometry">
            <mxPoint x="-985" y="190" as="sourcePoint" />
            <mxPoint x="-935" y="140" as="targetPoint" />
            <Array as="points">
              <mxPoint x="-940" y="150" />
              <mxPoint x="-890" y="150" />
            </Array>
          </mxGeometry>
        </mxCell>
        <mxCell id="nLpi9SXfjAmbnUqDCLWk-168" value="" style="html=1;verticalAlign=bottom;labelBackgroundColor=none;endArrow=block;endFill=1;dashed=1;rounded=0;exitX=0;exitY=0.5;exitDx=0;exitDy=0;exitPerimeter=0;" parent="WIyWlLk6GJQsqaUBKTNV-1" source="nLpi9SXfjAmbnUqDCLWk-93" edge="1">
          <mxGeometry width="160" relative="1" as="geometry">
            <mxPoint x="-1255" y="290" as="sourcePoint" />
            <mxPoint x="-1485" y="400" as="targetPoint" />
            <Array as="points">
              <mxPoint x="-1015" y="100" />
              <mxPoint x="-1015" y="330" />
              <mxPoint x="-1465" y="330" />
              <mxPoint x="-1465" y="400" />
            </Array>
          </mxGeometry>
        </mxCell>
        <mxCell id="nLpi9SXfjAmbnUqDCLWk-177" value="" style="endArrow=classic;html=1;rounded=0;exitX=0.25;exitY=1;exitDx=0;exitDy=0;entryX=0.5;entryY=0;entryDx=0;entryDy=0;" parent="WIyWlLk6GJQsqaUBKTNV-1" source="nLpi9SXfjAmbnUqDCLWk-91" target="nLpi9SXfjAmbnUqDCLWk-170" edge="1">
          <mxGeometry width="50" height="50" relative="1" as="geometry">
            <mxPoint x="-1195" y="310" as="sourcePoint" />
            <mxPoint x="-1145" y="260" as="targetPoint" />
            <Array as="points">
              <mxPoint x="-1105" y="400" />
              <mxPoint x="-1225" y="400" />
              <mxPoint x="-1225" y="410" />
            </Array>
          </mxGeometry>
        </mxCell>
        <mxCell id="nLpi9SXfjAmbnUqDCLWk-149" value="" style="html=1;verticalAlign=bottom;labelBackgroundColor=none;endArrow=block;endFill=1;dashed=1;rounded=0;exitX=0;exitY=0.5;exitDx=0;exitDy=0;exitPerimeter=0;" parent="WIyWlLk6GJQsqaUBKTNV-1" source="nLpi9SXfjAmbnUqDCLWk-93" edge="1">
          <mxGeometry width="160" relative="1" as="geometry">
            <mxPoint x="-980" y="124" as="sourcePoint" />
            <mxPoint x="-1148" y="330" as="targetPoint" />
            <Array as="points">
              <mxPoint x="-1015" y="99" />
              <mxPoint x="-1015" y="330" />
            </Array>
          </mxGeometry>
        </mxCell>
        <mxCell id="nLpi9SXfjAmbnUqDCLWk-151" value="" style="html=1;verticalAlign=bottom;labelBackgroundColor=none;endArrow=block;endFill=1;dashed=1;rounded=0;exitX=0;exitY=0.5;exitDx=0;exitDy=0;exitPerimeter=0;" parent="WIyWlLk6GJQsqaUBKTNV-1" source="nLpi9SXfjAmbnUqDCLWk-93" edge="1">
          <mxGeometry width="160" relative="1" as="geometry">
            <mxPoint x="-1015" y="120" as="sourcePoint" />
            <mxPoint x="-1338" y="330" as="targetPoint" />
            <Array as="points">
              <mxPoint x="-1015" y="99" />
              <mxPoint x="-1015" y="330" />
            </Array>
          </mxGeometry>
        </mxCell>
        <mxCell id="nLpi9SXfjAmbnUqDCLWk-150" value="" style="html=1;verticalAlign=bottom;labelBackgroundColor=none;endArrow=block;endFill=1;dashed=1;rounded=0;exitX=0;exitY=0.5;exitDx=0;exitDy=0;exitPerimeter=0;" parent="WIyWlLk6GJQsqaUBKTNV-1" source="nLpi9SXfjAmbnUqDCLWk-93" edge="1">
          <mxGeometry width="160" relative="1" as="geometry">
            <mxPoint x="-980" y="124" as="sourcePoint" />
            <mxPoint x="-1238" y="330" as="targetPoint" />
            <Array as="points">
              <mxPoint x="-1015" y="99" />
              <mxPoint x="-1015" y="330" />
            </Array>
          </mxGeometry>
        </mxCell>
        <mxCell id="nLpi9SXfjAmbnUqDCLWk-77" value="&lt;font style=&quot;font-size: 10px;&quot;&gt;Datos iniciales&lt;/font&gt;" style="swimlane;horizontal=0;whiteSpace=wrap;html=1;strokeColor=light-dark(#000000,#FFFF00);" parent="WIyWlLk6GJQsqaUBKTNV-1" vertex="1">
          <mxGeometry x="-1645" y="50" width="810" height="90" as="geometry" />
        </mxCell>
        <mxCell id="nLpi9SXfjAmbnUqDCLWk-81" value="" style="swimlane;startSize=0;strokeColor=light-dark(#000000,#FF0080);" parent="nLpi9SXfjAmbnUqDCLWk-77" vertex="1">
          <mxGeometry x="30" y="9" width="190" height="70" as="geometry" />
        </mxCell>
        <mxCell id="nLpi9SXfjAmbnUqDCLWk-82" value="&lt;font style=&quot;font-size: 9px;&quot;&gt;Datos vectoriales&lt;/font&gt;" style="text;html=1;align=center;verticalAlign=middle;resizable=0;points=[];autosize=1;strokeColor=none;fillColor=none;" parent="nLpi9SXfjAmbnUqDCLWk-81" vertex="1">
          <mxGeometry x="-10" y="-10" width="90" height="30" as="geometry" />
        </mxCell>
        <mxCell id="nLpi9SXfjAmbnUqDCLWk-83" value="&lt;font style=&quot;font-size: 8px;&quot;&gt;Incendios EPSG:3042&lt;/font&gt;" style="rounded=1;whiteSpace=wrap;html=1;fillColor=light-dark(#FFFFFF,#003300);" parent="nLpi9SXfjAmbnUqDCLWk-81" vertex="1">
          <mxGeometry x="100" y="20" width="80" height="40" as="geometry" />
        </mxCell>
        <mxCell id="nLpi9SXfjAmbnUqDCLWk-84" value="&lt;font style=&quot;font-size: 8px;&quot;&gt;&lt;font style=&quot;&quot;&gt;Mapa de vegetaci칩n &lt;/font&gt;&lt;span style=&quot;background-color: transparent; color: light-dark(rgb(0, 0, 0), rgb(255, 255, 255));&quot;&gt;EPSG:25830&lt;/span&gt;&lt;/font&gt;" style="rounded=1;whiteSpace=wrap;html=1;fillColor=light-dark(#FFFFFF,#003300);" parent="nLpi9SXfjAmbnUqDCLWk-81" vertex="1">
          <mxGeometry x="10" y="20" width="80" height="40" as="geometry" />
        </mxCell>
        <mxCell id="nLpi9SXfjAmbnUqDCLWk-86" value="" style="swimlane;startSize=0;strokeColor=light-dark(#000000,#7F00FF);" parent="nLpi9SXfjAmbnUqDCLWk-77" vertex="1">
          <mxGeometry x="220" y="9" width="580" height="70" as="geometry" />
        </mxCell>
        <mxCell id="nLpi9SXfjAmbnUqDCLWk-87" value="&lt;font style=&quot;font-size: 9px;&quot;&gt;Datos r치ster&lt;/font&gt;" style="text;html=1;align=center;verticalAlign=middle;resizable=0;points=[];autosize=1;strokeColor=none;fillColor=none;" parent="nLpi9SXfjAmbnUqDCLWk-86" vertex="1">
          <mxGeometry x="-10" y="-10" width="70" height="30" as="geometry" />
        </mxCell>
        <mxCell id="nLpi9SXfjAmbnUqDCLWk-88" value="&lt;div&gt;&lt;font style=&quot;font-size: 8px;&quot;&gt;Temperatura 500m&lt;/font&gt;&lt;/div&gt;&lt;div&gt;&lt;font style=&quot;font-size: 8px;&quot;&gt;EPSG:3345&lt;/font&gt;&lt;/div&gt;" style="strokeWidth=2;html=1;shape=mxgraph.flowchart.multi-document;whiteSpace=wrap;fillColor=light-dark(#FFFFFF,#003300);" parent="nLpi9SXfjAmbnUqDCLWk-86" vertex="1">
          <mxGeometry x="10" y="20" width="90" height="40" as="geometry" />
        </mxCell>
        <mxCell id="nLpi9SXfjAmbnUqDCLWk-89" value="&lt;font style=&quot;font-size: 8px;&quot;&gt;Prcipitaci칩n 500m EPSG:3345&lt;/font&gt;" style="strokeWidth=2;html=1;shape=mxgraph.flowchart.multi-document;whiteSpace=wrap;fillColor=light-dark(#FFFFFF,#003300);" parent="nLpi9SXfjAmbnUqDCLWk-86" vertex="1">
          <mxGeometry x="110" y="20" width="90" height="40" as="geometry" />
        </mxCell>
        <mxCell id="nLpi9SXfjAmbnUqDCLWk-90" value="&lt;font style=&quot;font-size: 8px;&quot;&gt;Radiaci칩n 10 m EPSG:25830&lt;/font&gt;" style="rounded=1;whiteSpace=wrap;html=1;fillColor=light-dark(#FFFFFF,#003300);" parent="nLpi9SXfjAmbnUqDCLWk-86" vertex="1">
          <mxGeometry x="210" y="20" width="80" height="40" as="geometry" />
        </mxCell>
        <mxCell id="nLpi9SXfjAmbnUqDCLWk-91" value="&lt;font style=&quot;font-size: 8px;&quot;&gt;MDE 30 m EPSG:4326&lt;/font&gt;" style="rounded=1;whiteSpace=wrap;html=1;fillColor=light-dark(#FFFFFF,#000033);" parent="nLpi9SXfjAmbnUqDCLWk-86" vertex="1">
          <mxGeometry x="300" y="20" width="80" height="40" as="geometry" />
        </mxCell>
        <mxCell id="nLpi9SXfjAmbnUqDCLWk-93" value="&lt;font style=&quot;font-size: 8px;&quot;&gt;NDVI 30 m&lt;/font&gt;&lt;div&gt;&lt;font style=&quot;font-size: 8px;&quot;&gt;EPSG:4326&lt;/font&gt;&lt;/div&gt;" style="strokeWidth=2;html=1;shape=mxgraph.flowchart.multi-document;whiteSpace=wrap;fillColor=light-dark(#FFFFFF,#000033);" parent="nLpi9SXfjAmbnUqDCLWk-86" vertex="1">
          <mxGeometry x="440" y="20" width="90" height="40" as="geometry" />
        </mxCell>
        <mxCell id="nLpi9SXfjAmbnUqDCLWk-78" value="&lt;font style=&quot;font-size: 8px;&quot;&gt;Fuente de datos&lt;/font&gt;" style="swimlane;horizontal=0;whiteSpace=wrap;html=1;strokeColor=light-dark(#000000,#80FF00);" parent="WIyWlLk6GJQsqaUBKTNV-1" vertex="1">
          <mxGeometry x="-1645" width="810" height="50" as="geometry" />
        </mxCell>
        <mxCell id="nLpi9SXfjAmbnUqDCLWk-79" value="&lt;font style=&quot;font-size: 14px;&quot;&gt;REDIAM&lt;/font&gt;" style="shape=cube;whiteSpace=wrap;html=1;boundedLbl=1;backgroundOutline=1;darkOpacity=0.05;darkOpacity2=0.1;size=10;fillColor=light-dark(#FFFFFF,#003300);" parent="nLpi9SXfjAmbnUqDCLWk-78" vertex="1">
          <mxGeometry x="190" y="10" width="74.5" height="30" as="geometry" />
        </mxCell>
        <mxCell id="nLpi9SXfjAmbnUqDCLWk-80" value="&lt;font style=&quot;font-size: 14px;&quot;&gt;Landsat&lt;/font&gt;" style="shape=cube;whiteSpace=wrap;html=1;boundedLbl=1;backgroundOutline=1;darkOpacity=0.05;darkOpacity2=0.1;size=10;fillColor=light-dark(#FFFFFF,#000033);" parent="nLpi9SXfjAmbnUqDCLWk-78" vertex="1">
          <mxGeometry x="590" y="10" width="74.5" height="30" as="geometry" />
        </mxCell>
        <mxCell id="nLpi9SXfjAmbnUqDCLWk-94" value="&lt;font style=&quot;font-size: 10px;&quot;&gt;Procesamiento&lt;/font&gt;" style="swimlane;horizontal=0;whiteSpace=wrap;html=1;strokeColor=light-dark(#000000,#FF8000);" parent="WIyWlLk6GJQsqaUBKTNV-1" vertex="1">
          <mxGeometry x="-1645" y="140" width="810" height="250" as="geometry" />
        </mxCell>
        <mxCell id="nLpi9SXfjAmbnUqDCLWk-95" value="&lt;font style=&quot;font-size: 8px;&quot;&gt;Mapa de pinos EPSG:25830&lt;/font&gt;" style="rounded=0;whiteSpace=wrap;html=1;fillColor=light-dark(#FFFFFF,#003300);" parent="nLpi9SXfjAmbnUqDCLWk-94" vertex="1">
          <mxGeometry x="40" y="30" width="80" height="30" as="geometry" />
        </mxCell>
        <mxCell id="nLpi9SXfjAmbnUqDCLWk-96" value="&lt;font style=&quot;font-size: 8px;&quot;&gt;Mapa de pinos EPSG:4326&lt;/font&gt;" style="rounded=0;whiteSpace=wrap;html=1;fillColor=light-dark(#FFFFFF,#003300);" parent="nLpi9SXfjAmbnUqDCLWk-94" vertex="1">
          <mxGeometry x="40" y="90" width="80" height="30" as="geometry" />
        </mxCell>
        <mxCell id="nLpi9SXfjAmbnUqDCLWk-97" value="&lt;font style=&quot;font-size: 8px;&quot;&gt;Incendios corregido EPSG:3042&lt;/font&gt;" style="rounded=0;whiteSpace=wrap;html=1;fillColor=light-dark(#FFFFFF,#003300);" parent="nLpi9SXfjAmbnUqDCLWk-94" vertex="1">
          <mxGeometry x="130" y="30" width="80" height="30" as="geometry" />
        </mxCell>
        <mxCell id="nLpi9SXfjAmbnUqDCLWk-98" value="&lt;font style=&quot;font-size: 8px;&quot;&gt;Incendios EPSG:4326&lt;/font&gt;" style="rounded=0;whiteSpace=wrap;html=1;fillColor=light-dark(#FFFFFF,#003300);" parent="nLpi9SXfjAmbnUqDCLWk-94" vertex="1">
          <mxGeometry x="130" y="90" width="80" height="30" as="geometry" />
        </mxCell>
        <mxCell id="nLpi9SXfjAmbnUqDCLWk-99" value="&lt;font style=&quot;font-size: 8px;&quot;&gt;Mapa de pinos recortado EPSG:4326&lt;/font&gt;" style="rounded=0;whiteSpace=wrap;html=1;fillColor=light-dark(#FFFFFF,#003300);" parent="nLpi9SXfjAmbnUqDCLWk-94" vertex="1">
          <mxGeometry x="80" y="150" width="90" height="30" as="geometry" />
        </mxCell>
        <mxCell id="nLpi9SXfjAmbnUqDCLWk-100" value="&lt;font style=&quot;font-size: 8px;&quot;&gt;TWI 30 m EPSG:4326&lt;/font&gt;" style="rounded=0;whiteSpace=wrap;html=1;fillColor=light-dark(#FFFFFF,#000033);" parent="nLpi9SXfjAmbnUqDCLWk-94" vertex="1">
          <mxGeometry x="520" y="30" width="80" height="30" as="geometry" />
        </mxCell>
        <mxCell id="nLpi9SXfjAmbnUqDCLWk-101" value="&lt;font style=&quot;font-size: 8px;&quot;&gt;&lt;font style=&quot;&quot;&gt;Temperatura 500 m EPSG:3345&lt;/font&gt;&lt;/font&gt;&lt;span style=&quot;color: rgba(0, 0, 0, 0); font-family: monospace; text-align: start; text-wrap-mode: nowrap; font-size: 0px;&quot;&gt;3CmxGraphModel%3E%3Croot%3E%3CmxCell%20id%3D%220%22%2F%3E%3CmxCell%20id%3D%221%22%20parent%3D%220%22%2F%3E%3CmxCell%20id%3D%222%22%20value%3D%22%26lt%3Bfont%20style%3D%26quot%3Bfont-size%3A%2010px%3B%26quot%3B%26gt%3BIncendios%26lt%3B%2Ffont%26gt%3B%22%20style%3D%22rounded%3D0%3BwhiteSpace%3Dwrap%3Bhtml%3D1%3B%22%20vertex%3D%221%22%20parent%3D%221%22%3E%3CmxGeometry%20x%3D%22150%22%20y%3D%22240%22%20width%3D%2260%22%20height%3D%2230%22%20as%3D%22geometry%22%2F%3E%3C%2FmxCell%3E%3C%2Froot%3E%3C%2FmxGraphModel%3E&lt;/span&gt;" style="rounded=0;whiteSpace=wrap;html=1;fillColor=light-dark(#FFFFFF,#003300);" parent="nLpi9SXfjAmbnUqDCLWk-94" vertex="1">
          <mxGeometry x="230" y="30" width="90" height="30" as="geometry" />
        </mxCell>
        <mxCell id="nLpi9SXfjAmbnUqDCLWk-102" value="&lt;span style=&quot;font-size: 8px;&quot;&gt;Temperatura 500 m EPSG:&lt;/span&gt;&lt;span style=&quot;font-size: 8px;&quot;&gt;4326&lt;/span&gt;" style="rounded=0;whiteSpace=wrap;html=1;fillColor=light-dark(#FFFFFF,#003300);align=center;" parent="nLpi9SXfjAmbnUqDCLWk-94" vertex="1">
          <mxGeometry x="230" y="150" width="90" height="30" as="geometry" />
        </mxCell>
        <mxCell id="nLpi9SXfjAmbnUqDCLWk-103" value="&lt;font style=&quot;font-size: 8px;&quot;&gt;Temperatura 30 m EPSG:4326&lt;/font&gt;" style="rounded=0;whiteSpace=wrap;html=1;fillColor=light-dark(#FFFFFF,#003300);" parent="nLpi9SXfjAmbnUqDCLWk-94" vertex="1">
          <mxGeometry x="230" y="210" width="90" height="30" as="geometry" />
        </mxCell>
        <mxCell id="nLpi9SXfjAmbnUqDCLWk-104" value="&lt;font style=&quot;font-size: 8px;&quot;&gt;&lt;font style=&quot;&quot;&gt;Precipitaci칩n&amp;nbsp;&lt;/font&gt;&lt;/font&gt;&lt;div&gt;&lt;font style=&quot;font-size: 8px;&quot;&gt;&lt;font style=&quot;&quot;&gt;500 m&lt;/font&gt;&lt;font style=&quot;background-color: transparent; color: light-dark(rgb(0, 0, 0), rgb(255, 255, 255));&quot;&gt;&amp;nbsp;EPSG:3345&lt;/font&gt;&lt;/font&gt;&lt;/div&gt;" style="rounded=0;whiteSpace=wrap;html=1;fillColor=light-dark(#FFFFFF,#003300);" parent="nLpi9SXfjAmbnUqDCLWk-94" vertex="1">
          <mxGeometry x="330" y="30" width="90" height="30" as="geometry" />
        </mxCell>
        <mxCell id="nLpi9SXfjAmbnUqDCLWk-105" value="&lt;font style=&quot;font-size: 8px;&quot;&gt;Precipitaci칩n 500 m EPSG:&lt;/font&gt;&lt;span style=&quot;font-size: 8px;&quot;&gt;4326&lt;/span&gt;" style="rounded=0;whiteSpace=wrap;html=1;fillColor=light-dark(#FFFFFF,#003300);" parent="nLpi9SXfjAmbnUqDCLWk-94" vertex="1">
          <mxGeometry x="330" y="150" width="90" height="30" as="geometry" />
        </mxCell>
        <mxCell id="nLpi9SXfjAmbnUqDCLWk-106" value="&lt;span style=&quot;font-size: 8px;&quot;&gt;Precipitaci칩n 30 m EPSG:4326&lt;/span&gt;" style="rounded=0;whiteSpace=wrap;html=1;fillColor=light-dark(#FFFFFF,#003300);" parent="nLpi9SXfjAmbnUqDCLWk-94" vertex="1">
          <mxGeometry x="330" y="210" width="90" height="30" as="geometry" />
        </mxCell>
        <mxCell id="nLpi9SXfjAmbnUqDCLWk-107" value="&lt;font style=&quot;font-size: 8px;&quot;&gt;Radiaci칩n 10 m EPSG:&lt;/font&gt;&lt;span style=&quot;font-size: 8px;&quot;&gt;4326&lt;/span&gt;" style="rounded=0;whiteSpace=wrap;html=1;fillColor=light-dark(#FFFFFF,#003300);" parent="nLpi9SXfjAmbnUqDCLWk-94" vertex="1">
          <mxGeometry x="430" y="150" width="80" height="30" as="geometry" />
        </mxCell>
        <mxCell id="nLpi9SXfjAmbnUqDCLWk-108" value="&lt;span style=&quot;font-size: 8px;&quot;&gt;Radiaci칩n 30 m EPSG:4326&lt;/span&gt;" style="rounded=0;whiteSpace=wrap;html=1;fillColor=light-dark(#FFFFFF,#003300);" parent="nLpi9SXfjAmbnUqDCLWk-94" vertex="1">
          <mxGeometry x="430" y="210" width="80" height="30" as="geometry" />
        </mxCell>
        <mxCell id="nLpi9SXfjAmbnUqDCLWk-109" value="" style="endArrow=classic;html=1;rounded=0;exitX=0.5;exitY=1;exitDx=0;exitDy=0;entryX=0.5;entryY=0;entryDx=0;entryDy=0;" parent="nLpi9SXfjAmbnUqDCLWk-94" source="nLpi9SXfjAmbnUqDCLWk-95" target="nLpi9SXfjAmbnUqDCLWk-96" edge="1">
          <mxGeometry relative="1" as="geometry">
            <mxPoint x="80" y="30" as="sourcePoint" />
            <mxPoint x="80" y="85" as="targetPoint" />
          </mxGeometry>
        </mxCell>
        <mxCell id="nLpi9SXfjAmbnUqDCLWk-110" value="&lt;font style=&quot;font-size: 9px;&quot;&gt;Reproyecci칩n&lt;/font&gt;" style="edgeLabel;resizable=0;html=1;;align=center;verticalAlign=middle;" parent="nLpi9SXfjAmbnUqDCLWk-109" connectable="0" vertex="1">
          <mxGeometry relative="1" as="geometry">
            <mxPoint y="-5" as="offset" />
          </mxGeometry>
        </mxCell>
        <mxCell id="nLpi9SXfjAmbnUqDCLWk-111" value="&lt;font style=&quot;font-size: 8px;&quot;&gt;Mapa de pinos agrupado EPSG:4326&lt;/font&gt;" style="rounded=0;whiteSpace=wrap;html=1;fillColor=light-dark(#FFFFFF,#003300);" parent="nLpi9SXfjAmbnUqDCLWk-94" vertex="1">
          <mxGeometry x="80" y="210" width="90" height="30" as="geometry" />
        </mxCell>
        <mxCell id="nLpi9SXfjAmbnUqDCLWk-112" value="" style="endArrow=classic;html=1;rounded=0;entryX=0.5;entryY=0;entryDx=0;entryDy=0;exitX=0.5;exitY=1;exitDx=0;exitDy=0;" parent="nLpi9SXfjAmbnUqDCLWk-94" source="hw-0LQKo0hOjV66VEuum-0" target="nLpi9SXfjAmbnUqDCLWk-102" edge="1">
          <mxGeometry relative="1" as="geometry">
            <mxPoint x="275" y="120" as="sourcePoint" />
            <mxPoint x="250" y="100" as="targetPoint" />
          </mxGeometry>
        </mxCell>
        <mxCell id="nLpi9SXfjAmbnUqDCLWk-113" value="&lt;font style=&quot;font-size: 9px;&quot;&gt;Reproyecci칩n&lt;/font&gt;" style="edgeLabel;resizable=0;html=1;;align=center;verticalAlign=middle;" parent="nLpi9SXfjAmbnUqDCLWk-112" connectable="0" vertex="1">
          <mxGeometry relative="1" as="geometry">
            <mxPoint y="-5" as="offset" />
          </mxGeometry>
        </mxCell>
        <mxCell id="nLpi9SXfjAmbnUqDCLWk-114" value="" style="endArrow=classic;html=1;rounded=0;entryX=0.5;entryY=0;entryDx=0;entryDy=0;exitX=0.5;exitY=1;exitDx=0;exitDy=0;" parent="nLpi9SXfjAmbnUqDCLWk-94" source="nLpi9SXfjAmbnUqDCLWk-101" target="hw-0LQKo0hOjV66VEuum-0" edge="1">
          <mxGeometry relative="1" as="geometry">
            <mxPoint x="274.83" y="60" as="sourcePoint" />
            <mxPoint x="274.83" y="90" as="targetPoint" />
          </mxGeometry>
        </mxCell>
        <mxCell id="nLpi9SXfjAmbnUqDCLWk-115" value="&lt;font size=&quot;1&quot;&gt;C치lculo tau&lt;/font&gt;" style="edgeLabel;resizable=0;html=1;;align=center;verticalAlign=middle;" parent="nLpi9SXfjAmbnUqDCLWk-114" connectable="0" vertex="1">
          <mxGeometry relative="1" as="geometry">
            <mxPoint y="-5" as="offset" />
          </mxGeometry>
        </mxCell>
        <mxCell id="nLpi9SXfjAmbnUqDCLWk-116" value="" style="endArrow=classic;html=1;rounded=0;exitX=0.5;exitY=1;exitDx=0;exitDy=0;entryX=0.5;entryY=0;entryDx=0;entryDy=0;" parent="nLpi9SXfjAmbnUqDCLWk-94" source="nLpi9SXfjAmbnUqDCLWk-107" target="nLpi9SXfjAmbnUqDCLWk-108" edge="1">
          <mxGeometry relative="1" as="geometry">
            <mxPoint x="410" y="93" as="sourcePoint" />
            <mxPoint x="410" y="120" as="targetPoint" />
          </mxGeometry>
        </mxCell>
        <mxCell id="nLpi9SXfjAmbnUqDCLWk-117" value="&lt;font style=&quot;font-size: 9px;&quot;&gt;Remuestreo&lt;/font&gt;" style="edgeLabel;resizable=0;html=1;;align=center;verticalAlign=middle;" parent="nLpi9SXfjAmbnUqDCLWk-116" connectable="0" vertex="1">
          <mxGeometry relative="1" as="geometry">
            <mxPoint y="-5" as="offset" />
          </mxGeometry>
        </mxCell>
        <mxCell id="nLpi9SXfjAmbnUqDCLWk-118" value="" style="endArrow=classic;html=1;rounded=0;entryX=0.5;entryY=0;entryDx=0;entryDy=0;" parent="nLpi9SXfjAmbnUqDCLWk-94" source="nLpi9SXfjAmbnUqDCLWk-105" target="nLpi9SXfjAmbnUqDCLWk-106" edge="1">
          <mxGeometry relative="1" as="geometry">
            <mxPoint x="400" y="83" as="sourcePoint" />
            <mxPoint x="400" y="110" as="targetPoint" />
          </mxGeometry>
        </mxCell>
        <mxCell id="nLpi9SXfjAmbnUqDCLWk-119" value="&lt;font style=&quot;font-size: 9px;&quot;&gt;Remuestreo&lt;/font&gt;" style="edgeLabel;resizable=0;html=1;;align=center;verticalAlign=middle;" parent="nLpi9SXfjAmbnUqDCLWk-118" connectable="0" vertex="1">
          <mxGeometry relative="1" as="geometry">
            <mxPoint y="-5" as="offset" />
          </mxGeometry>
        </mxCell>
        <mxCell id="nLpi9SXfjAmbnUqDCLWk-120" value="" style="endArrow=classic;html=1;rounded=0;exitX=0.5;exitY=1;exitDx=0;exitDy=0;entryX=0.5;entryY=0;entryDx=0;entryDy=0;" parent="nLpi9SXfjAmbnUqDCLWk-94" source="nLpi9SXfjAmbnUqDCLWk-102" target="nLpi9SXfjAmbnUqDCLWk-103" edge="1">
          <mxGeometry relative="1" as="geometry">
            <mxPoint x="390" y="73" as="sourcePoint" />
            <mxPoint x="390" y="100" as="targetPoint" />
          </mxGeometry>
        </mxCell>
        <mxCell id="nLpi9SXfjAmbnUqDCLWk-121" value="&lt;font style=&quot;font-size: 9px;&quot;&gt;Remuestreo&lt;/font&gt;" style="edgeLabel;resizable=0;html=1;;align=center;verticalAlign=middle;" parent="nLpi9SXfjAmbnUqDCLWk-120" connectable="0" vertex="1">
          <mxGeometry relative="1" as="geometry">
            <mxPoint y="-5" as="offset" />
          </mxGeometry>
        </mxCell>
        <mxCell id="nLpi9SXfjAmbnUqDCLWk-122" value="" style="endArrow=classic;html=1;rounded=0;exitX=0.5;exitY=1;exitDx=0;exitDy=0;entryX=0.5;entryY=0;entryDx=0;entryDy=0;" parent="nLpi9SXfjAmbnUqDCLWk-94" source="nLpi9SXfjAmbnUqDCLWk-97" target="nLpi9SXfjAmbnUqDCLWk-98" edge="1">
          <mxGeometry relative="1" as="geometry">
            <mxPoint x="80" y="70" as="sourcePoint" />
            <mxPoint x="80" y="100" as="targetPoint" />
          </mxGeometry>
        </mxCell>
        <mxCell id="nLpi9SXfjAmbnUqDCLWk-123" value="&lt;font style=&quot;font-size: 9px;&quot;&gt;Reproyecci칩n&lt;/font&gt;" style="edgeLabel;resizable=0;html=1;;align=center;verticalAlign=middle;" parent="nLpi9SXfjAmbnUqDCLWk-122" connectable="0" vertex="1">
          <mxGeometry relative="1" as="geometry">
            <mxPoint y="-5" as="offset" />
          </mxGeometry>
        </mxCell>
        <mxCell id="nLpi9SXfjAmbnUqDCLWk-124" value="" style="endArrow=classic;html=1;rounded=0;exitX=0.5;exitY=1;exitDx=0;exitDy=0;entryX=0.5;entryY=0;entryDx=0;entryDy=0;" parent="nLpi9SXfjAmbnUqDCLWk-94" source="nLpi9SXfjAmbnUqDCLWk-96" target="nLpi9SXfjAmbnUqDCLWk-99" edge="1">
          <mxGeometry width="50" height="50" relative="1" as="geometry">
            <mxPoint x="150" y="140" as="sourcePoint" />
            <mxPoint x="200" y="90" as="targetPoint" />
            <Array as="points">
              <mxPoint x="80" y="130" />
              <mxPoint x="125" y="130" />
            </Array>
          </mxGeometry>
        </mxCell>
        <mxCell id="nLpi9SXfjAmbnUqDCLWk-125" value="" style="endArrow=classic;html=1;rounded=0;exitX=0.5;exitY=1;exitDx=0;exitDy=0;entryX=0.5;entryY=0;entryDx=0;entryDy=0;" parent="nLpi9SXfjAmbnUqDCLWk-94" source="nLpi9SXfjAmbnUqDCLWk-98" target="nLpi9SXfjAmbnUqDCLWk-99" edge="1">
          <mxGeometry relative="1" as="geometry">
            <mxPoint x="130" y="110" as="sourcePoint" />
            <mxPoint x="230" y="110" as="targetPoint" />
            <Array as="points">
              <mxPoint x="170" y="130" />
              <mxPoint x="125" y="130" />
            </Array>
          </mxGeometry>
        </mxCell>
        <mxCell id="nLpi9SXfjAmbnUqDCLWk-126" value="&lt;font style=&quot;font-size: 9px;&quot;&gt;Recorte&lt;/font&gt;" style="edgeLabel;resizable=0;html=1;;align=center;verticalAlign=middle;" parent="nLpi9SXfjAmbnUqDCLWk-125" connectable="0" vertex="1">
          <mxGeometry relative="1" as="geometry">
            <mxPoint x="-17" as="offset" />
          </mxGeometry>
        </mxCell>
        <mxCell id="nLpi9SXfjAmbnUqDCLWk-127" value="" style="endArrow=classic;html=1;rounded=0;exitX=0.5;exitY=1;exitDx=0;exitDy=0;entryX=0.5;entryY=0;entryDx=0;entryDy=0;" parent="nLpi9SXfjAmbnUqDCLWk-94" source="nLpi9SXfjAmbnUqDCLWk-99" target="nLpi9SXfjAmbnUqDCLWk-111" edge="1">
          <mxGeometry relative="1" as="geometry">
            <mxPoint x="80" y="70" as="sourcePoint" />
            <mxPoint x="80" y="100" as="targetPoint" />
          </mxGeometry>
        </mxCell>
        <mxCell id="nLpi9SXfjAmbnUqDCLWk-128" value="&lt;font style=&quot;font-size: 9px;&quot;&gt;Agrupaci칩n&lt;/font&gt;" style="edgeLabel;resizable=0;html=1;;align=center;verticalAlign=middle;" parent="nLpi9SXfjAmbnUqDCLWk-127" connectable="0" vertex="1">
          <mxGeometry relative="1" as="geometry">
            <mxPoint y="-5" as="offset" />
          </mxGeometry>
        </mxCell>
        <mxCell id="nLpi9SXfjAmbnUqDCLWk-153" value="&lt;font style=&quot;font-size: 8px;&quot;&gt;Multibanda (1984-2024) 30 m&amp;nbsp;EPSG:4326&lt;/font&gt;" style="rounded=0;whiteSpace=wrap;html=1;fillColor=light-dark(#FFFFFF,#000033);" parent="nLpi9SXfjAmbnUqDCLWk-94" vertex="1">
          <mxGeometry x="610" y="30" width="90" height="30" as="geometry" />
        </mxCell>
        <mxCell id="nLpi9SXfjAmbnUqDCLWk-155" value="&lt;span style=&quot;font-size: 8px;&quot;&gt;Tendencia 1984-2024&lt;/span&gt;&lt;div&gt;&lt;font style=&quot;font-size: 8px;&quot;&gt;30 m EPSG:4326&lt;/font&gt;&lt;/div&gt;" style="rounded=0;whiteSpace=wrap;html=1;fillColor=light-dark(#FFFFFF,#000033);" parent="nLpi9SXfjAmbnUqDCLWk-94" vertex="1">
          <mxGeometry x="610" y="90" width="90" height="30" as="geometry" />
        </mxCell>
        <mxCell id="nLpi9SXfjAmbnUqDCLWk-156" value="&lt;span style=&quot;font-size: 8px;&quot;&gt;Tendencia 2015-2024&lt;/span&gt;&lt;div&gt;&lt;font style=&quot;font-size: 8px;&quot;&gt;30 m EPSG:4326&lt;/font&gt;&lt;/div&gt;" style="rounded=0;whiteSpace=wrap;html=1;fillColor=light-dark(#FFFFFF,#000033);" parent="nLpi9SXfjAmbnUqDCLWk-94" vertex="1">
          <mxGeometry x="710" y="90" width="90" height="30" as="geometry" />
        </mxCell>
        <mxCell id="nLpi9SXfjAmbnUqDCLWk-159" value="" style="endArrow=classic;html=1;rounded=0;exitX=0.5;exitY=1;exitDx=0;exitDy=0;entryX=0.5;entryY=0;entryDx=0;entryDy=0;" parent="nLpi9SXfjAmbnUqDCLWk-94" source="nLpi9SXfjAmbnUqDCLWk-153" target="nLpi9SXfjAmbnUqDCLWk-155" edge="1">
          <mxGeometry relative="1" as="geometry">
            <mxPoint x="650" y="70" as="sourcePoint" />
            <mxPoint x="650" y="97" as="targetPoint" />
          </mxGeometry>
        </mxCell>
        <mxCell id="nLpi9SXfjAmbnUqDCLWk-160" value="&lt;font style=&quot;font-size: 9px;&quot;&gt;C치lculo tau&lt;/font&gt;" style="edgeLabel;resizable=0;html=1;;align=center;verticalAlign=middle;" parent="nLpi9SXfjAmbnUqDCLWk-159" connectable="0" vertex="1">
          <mxGeometry relative="1" as="geometry">
            <mxPoint y="-5" as="offset" />
          </mxGeometry>
        </mxCell>
        <mxCell id="hw-0LQKo0hOjV66VEuum-0" value="&lt;font style=&quot;font-size: 8px;&quot;&gt;&lt;font style=&quot;&quot;&gt;Tendencia t&lt;span style=&quot;color: rgba(0, 0, 0, 0); font-family: monospace; font-size: 0px; text-align: start; text-wrap-mode: nowrap;&quot;&gt;%3CmxGraphModel%3E%3Croot%3E%3CmxCell%20id%3D%220%22%2F%3E%3CmxCell%20id%3D%221%22%20parent%3D%220%22%2F%3E%3CmxCell%20id%3D%222%22%20value%3D%22%26lt%3Bfont%20style%3D%26quot%3Bfont-size%3A%208px%3B%26quot%3B%26gt%3B%26lt%3Bfont%20style%3D%26quot%3B%26quot%3B%26gt%3BTemperatura%20500%20m%20EPSG%3A3345%26lt%3B%2Ffont%26gt%3B%26lt%3B%2Ffont%26gt%3B%26lt%3Bspan%20style%3D%26quot%3Bcolor%3A%20rgba(0%2C%200%2C%200%2C%200)%3B%20font-family%3A%20monospace%3B%20text-align%3A%20start%3B%20text-wrap-mode%3A%20nowrap%3B%20font-size%3A%200px%3B%26quot%3B%26gt%3B3CmxGraphModel%253E%253Croot%253E%253CmxCell%2520id%253D%25220%2522%252F%253E%253CmxCell%2520id%253D%25221%2522%2520parent%253D%25220%2522%252F%253E%253CmxCell%2520id%253D%25222%2522%2520value%253D%2522%2526lt%253Bfont%2520style%253D%2526quot%253Bfont-size%253A%252010px%253B%2526quot%253B%2526gt%253BIncendios%2526lt%253B%252Ffont%2526gt%253B%2522%2520style%253D%2522rounded%253D0%253BwhiteSpace%253Dwrap%253Bhtml%253D1%253B%2522%2520vertex%253D%25221%2522%2520parent%253D%25221%2522%253E%253CmxGeometry%2520x%253D%2522150%2522%2520y%253D%2522240%2522%2520width%253D%252260%2522%2520height%253D%252230%2522%2520as%253D%2522geometry%2522%252F%253E%253C%252FmxCell%253E%253C%252Froot%253E%253C%252FmxGraphModel%253E%26lt%3B%2Fspan%26gt%3B%22%20style%3D%22rounded%3D0%3BwhiteSpace%3Dwrap%3Bhtml%3D1%3BfillColor%3Dlight-dark(%23FFFFFF%2C%23003300)%3B%22%20vertex%3D%221%22%20parent%3D%221%22%3E%3CmxGeometry%20x%3D%22-597%22%20y%3D%22170%22%20width%3D%2290%22%20height%3D%2230%22%20as%3D%22geometry%22%2F%3E%3C%2FmxCell%3E%3C%2Froot%3E%3C%2FmxGraphModel%3E&lt;/span&gt;emperatura 500 m EPSG:3345&lt;/font&gt;&lt;/font&gt;&lt;span style=&quot;color: rgba(0, 0, 0, 0); font-family: monospace; text-align: start; text-wrap-mode: nowrap; font-size: 0px;&quot;&gt;3CmxGraphModel%3E%3Croot%3E%3CmxCell%20id%3D%220%22%2F%3E%3CmxCell%20id%3D%221%22%20parent%3D%220%22%2F%3E%3CmxCell%20id%3D%222%22%20value%3D%22%26lt%3Bfont%20style%3D%26quot%3Bfont-size%3A%2010px%3B%26quot%3B%26gt%3BIncendios%26lt%3B%2Ffont%26gt%3B%22%20style%3D%22rounded%3D0%3BwhiteSpace%3Dwrap%3Bhtml%3D1%3B%22%20vertex%3D%221%22%20parent%3D%221%22%3E%3CmxGeometry%20x%3D%22150%22%20y%3D%22240%22%20width%3D%2260%22%20height%3D%2230%22%20as%3D%22geometry%22%2F%3E%3C%2FmxCell%3E%3C%2Froot%3E%3C%2FmxGraphModel%3E&lt;/span&gt;" style="rounded=0;whiteSpace=wrap;html=1;fillColor=light-dark(#FFFFFF,#003300);" parent="nLpi9SXfjAmbnUqDCLWk-94" vertex="1">
          <mxGeometry x="230" y="90" width="90" height="30" as="geometry" />
        </mxCell>
        <mxCell id="hw-0LQKo0hOjV66VEuum-2" value="&lt;font style=&quot;font-size: 8px;&quot;&gt;&lt;font style=&quot;&quot;&gt;&lt;font style=&quot;&quot;&gt;Tendencia precip.&amp;nbsp;&lt;/font&gt;&lt;/font&gt;&lt;font style=&quot;background-color: transparent; color: light-dark(rgb(0, 0, 0), rgb(255, 255, 255));&quot;&gt;500 m&lt;/font&gt;&lt;font style=&quot;background-color: transparent; color: light-dark(rgb(0, 0, 0), rgb(255, 255, 255));&quot;&gt;&amp;nbsp;EPSG:3345&lt;/font&gt;&lt;/font&gt;" style="rounded=0;whiteSpace=wrap;html=1;fillColor=light-dark(#FFFFFF,#003300);" parent="nLpi9SXfjAmbnUqDCLWk-94" vertex="1">
          <mxGeometry x="330" y="90" width="90" height="30" as="geometry" />
        </mxCell>
        <mxCell id="hw-0LQKo0hOjV66VEuum-3" value="" style="endArrow=classic;html=1;rounded=0;entryX=0.5;entryY=0;entryDx=0;entryDy=0;exitX=0.5;exitY=1;exitDx=0;exitDy=0;" parent="nLpi9SXfjAmbnUqDCLWk-94" source="nLpi9SXfjAmbnUqDCLWk-104" target="hw-0LQKo0hOjV66VEuum-2" edge="1">
          <mxGeometry relative="1" as="geometry">
            <mxPoint x="367" y="60" as="sourcePoint" />
            <mxPoint x="367" y="90" as="targetPoint" />
          </mxGeometry>
        </mxCell>
        <mxCell id="hw-0LQKo0hOjV66VEuum-4" value="&lt;font style=&quot;font-size: 9px;&quot;&gt;C치lculo tau&lt;/font&gt;" style="edgeLabel;resizable=0;html=1;;align=center;verticalAlign=middle;" parent="hw-0LQKo0hOjV66VEuum-3" connectable="0" vertex="1">
          <mxGeometry relative="1" as="geometry">
            <mxPoint y="-5" as="offset" />
          </mxGeometry>
        </mxCell>
        <mxCell id="hw-0LQKo0hOjV66VEuum-5" value="" style="endArrow=classic;html=1;rounded=0;entryX=0.5;entryY=0;entryDx=0;entryDy=0;exitX=0.5;exitY=1;exitDx=0;exitDy=0;" parent="nLpi9SXfjAmbnUqDCLWk-94" source="hw-0LQKo0hOjV66VEuum-2" target="nLpi9SXfjAmbnUqDCLWk-105" edge="1">
          <mxGeometry relative="1" as="geometry">
            <mxPoint x="357" y="130" as="sourcePoint" />
            <mxPoint x="357" y="160" as="targetPoint" />
          </mxGeometry>
        </mxCell>
        <mxCell id="hw-0LQKo0hOjV66VEuum-6" value="&lt;font style=&quot;font-size: 9px;&quot;&gt;Reproyecci칩n&lt;/font&gt;" style="edgeLabel;resizable=0;html=1;;align=center;verticalAlign=middle;" parent="hw-0LQKo0hOjV66VEuum-5" connectable="0" vertex="1">
          <mxGeometry relative="1" as="geometry">
            <mxPoint y="-5" as="offset" />
          </mxGeometry>
        </mxCell>
        <mxCell id="nLpi9SXfjAmbnUqDCLWk-132" value="&lt;font style=&quot;font-size: 10px;&quot;&gt;Resultados&lt;/font&gt;" style="swimlane;horizontal=0;whiteSpace=wrap;html=1;strokeColor=light-dark(#000000,#FF0000);" parent="WIyWlLk6GJQsqaUBKTNV-1" vertex="1">
          <mxGeometry x="-1645" y="390" width="810" height="70" as="geometry" />
        </mxCell>
        <mxCell id="nLpi9SXfjAmbnUqDCLWk-129" value="&lt;font style=&quot;font-size: 8px;&quot;&gt;Mapa de pinos rasterizado EPSG:4326&lt;/font&gt;" style="rounded=0;whiteSpace=wrap;html=1;fillColor=light-dark(#FFFFFF,#003300);" parent="nLpi9SXfjAmbnUqDCLWk-132" vertex="1">
          <mxGeometry x="80" y="30" width="90" height="30" as="geometry" />
        </mxCell>
        <mxCell id="nLpi9SXfjAmbnUqDCLWk-164" value="&lt;span style=&quot;font-size: 8px;&quot;&gt;Evoluci칩n tendencia&amp;nbsp;&lt;/span&gt;&lt;div&gt;&lt;span style=&quot;font-size: 8px;&quot;&gt;30 m EPSG:4326&lt;/span&gt;&lt;/div&gt;" style="rounded=0;whiteSpace=wrap;html=1;fillColor=light-dark(#FFFFFF,#000033);" parent="nLpi9SXfjAmbnUqDCLWk-132" vertex="1">
          <mxGeometry x="660" y="30" width="90" height="30" as="geometry" />
        </mxCell>
        <mxCell id="nLpi9SXfjAmbnUqDCLWk-170" value="&lt;font style=&quot;font-size: 8px;&quot;&gt;Gr치ficos que relacionan los cambios en la tendencia del funcionamiento con el contexto abi칩tico&lt;/font&gt;" style="shape=ext;double=1;rounded=1;whiteSpace=wrap;html=1;fillColor=light-dark(#FFFFFF,#33001A);" parent="nLpi9SXfjAmbnUqDCLWk-132" vertex="1">
          <mxGeometry x="320" y="30" width="200" height="30" as="geometry" />
        </mxCell>
        <mxCell id="nLpi9SXfjAmbnUqDCLWk-171" value="" style="endArrow=classic;html=1;rounded=0;exitX=1;exitY=0.5;exitDx=0;exitDy=0;entryX=0;entryY=0.5;entryDx=0;entryDy=0;" parent="nLpi9SXfjAmbnUqDCLWk-132" source="nLpi9SXfjAmbnUqDCLWk-129" target="nLpi9SXfjAmbnUqDCLWk-170" edge="1">
          <mxGeometry width="50" height="50" relative="1" as="geometry">
            <mxPoint x="440" y="40" as="sourcePoint" />
            <mxPoint x="490" y="-10" as="targetPoint" />
          </mxGeometry>
        </mxCell>
        <mxCell id="nLpi9SXfjAmbnUqDCLWk-172" value="" style="endArrow=classic;html=1;rounded=0;exitX=0;exitY=0.5;exitDx=0;exitDy=0;entryX=1;entryY=0.5;entryDx=0;entryDy=0;" parent="nLpi9SXfjAmbnUqDCLWk-132" source="nLpi9SXfjAmbnUqDCLWk-164" target="nLpi9SXfjAmbnUqDCLWk-170" edge="1">
          <mxGeometry width="50" height="50" relative="1" as="geometry">
            <mxPoint x="510" y="50" as="sourcePoint" />
            <mxPoint x="560" as="targetPoint" />
          </mxGeometry>
        </mxCell>
        <mxCell id="nLpi9SXfjAmbnUqDCLWk-130" value="" style="endArrow=classic;html=1;rounded=0;exitX=0.5;exitY=1;exitDx=0;exitDy=0;entryX=0.5;entryY=0;entryDx=0;entryDy=0;" parent="WIyWlLk6GJQsqaUBKTNV-1" source="nLpi9SXfjAmbnUqDCLWk-111" target="nLpi9SXfjAmbnUqDCLWk-129" edge="1">
          <mxGeometry relative="1" as="geometry">
            <mxPoint x="-1530" y="330" as="sourcePoint" />
            <mxPoint x="-1530" y="360" as="targetPoint" />
          </mxGeometry>
        </mxCell>
        <mxCell id="nLpi9SXfjAmbnUqDCLWk-131" value="&lt;font style=&quot;font-size: 9px;&quot;&gt;Rasterizaci칩n&lt;/font&gt;" style="edgeLabel;resizable=0;html=1;;align=center;verticalAlign=middle;" parent="nLpi9SXfjAmbnUqDCLWk-130" connectable="0" vertex="1">
          <mxGeometry relative="1" as="geometry">
            <mxPoint as="offset" />
          </mxGeometry>
        </mxCell>
        <mxCell id="nLpi9SXfjAmbnUqDCLWk-133" value="" style="endArrow=classic;html=1;rounded=0;exitX=0.5;exitY=1;exitDx=0;exitDy=0;entryX=0.5;entryY=0;entryDx=0;entryDy=0;" parent="WIyWlLk6GJQsqaUBKTNV-1" source="nLpi9SXfjAmbnUqDCLWk-84" target="nLpi9SXfjAmbnUqDCLWk-95" edge="1">
          <mxGeometry relative="1" as="geometry">
            <mxPoint x="-1595" y="-365" as="sourcePoint" />
            <mxPoint x="-1595" y="-310" as="targetPoint" />
          </mxGeometry>
        </mxCell>
        <mxCell id="nLpi9SXfjAmbnUqDCLWk-134" value="&lt;font style=&quot;font-size: 9px;&quot;&gt;Filtrado&lt;/font&gt;" style="edgeLabel;resizable=0;html=1;;align=center;verticalAlign=middle;" parent="nLpi9SXfjAmbnUqDCLWk-133" connectable="0" vertex="1">
          <mxGeometry relative="1" as="geometry">
            <mxPoint y="7" as="offset" />
          </mxGeometry>
        </mxCell>
        <mxCell id="nLpi9SXfjAmbnUqDCLWk-135" value="" style="endArrow=classic;html=1;rounded=0;exitX=0.5;exitY=1;exitDx=0;exitDy=0;entryX=0.5;entryY=0;entryDx=0;entryDy=0;" parent="WIyWlLk6GJQsqaUBKTNV-1" source="nLpi9SXfjAmbnUqDCLWk-83" target="nLpi9SXfjAmbnUqDCLWk-97" edge="1">
          <mxGeometry relative="1" as="geometry">
            <mxPoint x="-1525" y="-365" as="sourcePoint" />
            <mxPoint x="-1525" y="-310" as="targetPoint" />
          </mxGeometry>
        </mxCell>
        <mxCell id="nLpi9SXfjAmbnUqDCLWk-136" value="&lt;font style=&quot;font-size: 9px;&quot;&gt;Correcci칩n&lt;/font&gt;" style="edgeLabel;resizable=0;html=1;;align=center;verticalAlign=middle;" parent="nLpi9SXfjAmbnUqDCLWk-135" connectable="0" vertex="1">
          <mxGeometry relative="1" as="geometry">
            <mxPoint y="7" as="offset" />
          </mxGeometry>
        </mxCell>
        <mxCell id="nLpi9SXfjAmbnUqDCLWk-137" value="" style="endArrow=classic;html=1;rounded=0;exitX=0.5;exitY=0.88;exitDx=0;exitDy=0;exitPerimeter=0;entryX=0.5;entryY=0;entryDx=0;entryDy=0;" parent="WIyWlLk6GJQsqaUBKTNV-1" source="nLpi9SXfjAmbnUqDCLWk-88" target="nLpi9SXfjAmbnUqDCLWk-101" edge="1">
          <mxGeometry relative="1" as="geometry">
            <mxPoint x="-1435" y="-365" as="sourcePoint" />
            <mxPoint x="-1435" y="-310" as="targetPoint" />
          </mxGeometry>
        </mxCell>
        <mxCell id="nLpi9SXfjAmbnUqDCLWk-138" value="&lt;font style=&quot;font-size: 9px;&quot;&gt;Apilamiento&lt;/font&gt;" style="edgeLabel;resizable=0;html=1;;align=center;verticalAlign=middle;" parent="nLpi9SXfjAmbnUqDCLWk-137" connectable="0" vertex="1">
          <mxGeometry relative="1" as="geometry">
            <mxPoint y="7" as="offset" />
          </mxGeometry>
        </mxCell>
        <mxCell id="nLpi9SXfjAmbnUqDCLWk-139" value="" style="endArrow=classic;html=1;rounded=0;exitX=0.5;exitY=0.88;exitDx=0;exitDy=0;exitPerimeter=0;entryX=0.5;entryY=0;entryDx=0;entryDy=0;" parent="WIyWlLk6GJQsqaUBKTNV-1" source="nLpi9SXfjAmbnUqDCLWk-89" target="nLpi9SXfjAmbnUqDCLWk-104" edge="1">
          <mxGeometry relative="1" as="geometry">
            <mxPoint x="-1345" y="-365" as="sourcePoint" />
            <mxPoint x="-1345" y="-310" as="targetPoint" />
          </mxGeometry>
        </mxCell>
        <mxCell id="nLpi9SXfjAmbnUqDCLWk-140" value="&lt;font style=&quot;font-size: 9px;&quot;&gt;Apilamiento&lt;/font&gt;" style="edgeLabel;resizable=0;html=1;;align=center;verticalAlign=middle;" parent="nLpi9SXfjAmbnUqDCLWk-139" connectable="0" vertex="1">
          <mxGeometry relative="1" as="geometry">
            <mxPoint y="7" as="offset" />
          </mxGeometry>
        </mxCell>
        <mxCell id="nLpi9SXfjAmbnUqDCLWk-141" value="" style="endArrow=classic;html=1;rounded=0;exitX=0.5;exitY=1;exitDx=0;exitDy=0;entryX=0.5;entryY=0;entryDx=0;entryDy=0;" parent="WIyWlLk6GJQsqaUBKTNV-1" source="nLpi9SXfjAmbnUqDCLWk-90" target="nLpi9SXfjAmbnUqDCLWk-107" edge="1">
          <mxGeometry relative="1" as="geometry">
            <mxPoint x="-1265" y="-365" as="sourcePoint" />
            <mxPoint x="-1265" y="-250" as="targetPoint" />
          </mxGeometry>
        </mxCell>
        <mxCell id="nLpi9SXfjAmbnUqDCLWk-142" value="&lt;font style=&quot;font-size: 9px;&quot;&gt;Reproyecci칩n&lt;/font&gt;" style="edgeLabel;resizable=0;html=1;;align=center;verticalAlign=middle;" parent="nLpi9SXfjAmbnUqDCLWk-141" connectable="0" vertex="1">
          <mxGeometry relative="1" as="geometry">
            <mxPoint y="66" as="offset" />
          </mxGeometry>
        </mxCell>
        <mxCell id="nLpi9SXfjAmbnUqDCLWk-143" value="" style="endArrow=classic;html=1;rounded=0;exitX=0.5;exitY=1;exitDx=0;exitDy=0;entryX=0.5;entryY=0;entryDx=0;entryDy=0;" parent="WIyWlLk6GJQsqaUBKTNV-1" source="nLpi9SXfjAmbnUqDCLWk-91" target="nLpi9SXfjAmbnUqDCLWk-100" edge="1">
          <mxGeometry relative="1" as="geometry">
            <mxPoint x="-1195" y="-365" as="sourcePoint" />
            <mxPoint x="-1195" y="-310" as="targetPoint" />
          </mxGeometry>
        </mxCell>
        <mxCell id="nLpi9SXfjAmbnUqDCLWk-144" value="&lt;font style=&quot;font-size: 9px;&quot;&gt;C치lculo TWI&lt;/font&gt;" style="edgeLabel;resizable=0;html=1;;align=center;verticalAlign=middle;" parent="nLpi9SXfjAmbnUqDCLWk-143" connectable="0" vertex="1">
          <mxGeometry relative="1" as="geometry">
            <mxPoint y="6" as="offset" />
          </mxGeometry>
        </mxCell>
        <mxCell id="nLpi9SXfjAmbnUqDCLWk-154" value="&lt;font style=&quot;font-size: 8px;&quot;&gt;Multibanda (2015-2024) 30 m&amp;nbsp;EPSG:4326&lt;/font&gt;" style="rounded=0;whiteSpace=wrap;html=1;fillColor=light-dark(#FFFFFF,#000033);" parent="WIyWlLk6GJQsqaUBKTNV-1" vertex="1">
          <mxGeometry x="-935" y="170" width="90" height="30" as="geometry" />
        </mxCell>
        <mxCell id="nLpi9SXfjAmbnUqDCLWk-162" value="" style="endArrow=classic;html=1;rounded=0;exitX=0.5;exitY=1;exitDx=0;exitDy=0;entryX=0.5;entryY=0;entryDx=0;entryDy=0;" parent="WIyWlLk6GJQsqaUBKTNV-1" source="nLpi9SXfjAmbnUqDCLWk-154" target="nLpi9SXfjAmbnUqDCLWk-156" edge="1">
          <mxGeometry relative="1" as="geometry">
            <mxPoint x="-915" y="210" as="sourcePoint" />
            <mxPoint x="-915" y="240" as="targetPoint" />
          </mxGeometry>
        </mxCell>
        <mxCell id="nLpi9SXfjAmbnUqDCLWk-163" value="&lt;font style=&quot;font-size: 9px;&quot;&gt;C치lculo tau&lt;/font&gt;" style="edgeLabel;resizable=0;html=1;;align=center;verticalAlign=middle;" parent="nLpi9SXfjAmbnUqDCLWk-162" connectable="0" vertex="1">
          <mxGeometry relative="1" as="geometry">
            <mxPoint y="-5" as="offset" />
          </mxGeometry>
        </mxCell>
        <mxCell id="nLpi9SXfjAmbnUqDCLWk-165" value="" style="endArrow=classic;html=1;rounded=0;exitX=0.5;exitY=1;exitDx=0;exitDy=0;entryX=0.5;entryY=0;entryDx=0;entryDy=0;" parent="WIyWlLk6GJQsqaUBKTNV-1" source="nLpi9SXfjAmbnUqDCLWk-155" target="nLpi9SXfjAmbnUqDCLWk-164" edge="1">
          <mxGeometry width="50" height="50" relative="1" as="geometry">
            <mxPoint x="-915" y="340" as="sourcePoint" />
            <mxPoint x="-865" y="290" as="targetPoint" />
            <Array as="points">
              <mxPoint x="-990" y="270" />
              <mxPoint x="-940" y="270" />
            </Array>
          </mxGeometry>
        </mxCell>
        <mxCell id="nLpi9SXfjAmbnUqDCLWk-166" value="" style="endArrow=classic;html=1;rounded=0;exitX=0.5;exitY=1;exitDx=0;exitDy=0;entryX=0.5;entryY=0;entryDx=0;entryDy=0;" parent="WIyWlLk6GJQsqaUBKTNV-1" source="nLpi9SXfjAmbnUqDCLWk-156" target="nLpi9SXfjAmbnUqDCLWk-164" edge="1">
          <mxGeometry relative="1" as="geometry">
            <mxPoint x="-995" y="320" as="sourcePoint" />
            <mxPoint x="-895" y="320" as="targetPoint" />
            <Array as="points">
              <mxPoint x="-890" y="270" />
              <mxPoint x="-940" y="270" />
            </Array>
          </mxGeometry>
        </mxCell>
        <mxCell id="nLpi9SXfjAmbnUqDCLWk-167" value="&lt;font style=&quot;font-size: 9px;&quot;&gt;Diferencia&lt;/font&gt;" style="edgeLabel;resizable=0;html=1;;align=center;verticalAlign=middle;" parent="nLpi9SXfjAmbnUqDCLWk-166" connectable="0" vertex="1">
          <mxGeometry relative="1" as="geometry">
            <mxPoint y="85" as="offset" />
          </mxGeometry>
        </mxCell>
        <mxCell id="nLpi9SXfjAmbnUqDCLWk-174" value="" style="endArrow=classic;html=1;rounded=0;exitX=0.5;exitY=1;exitDx=0;exitDy=0;entryX=0.5;entryY=0;entryDx=0;entryDy=0;" parent="WIyWlLk6GJQsqaUBKTNV-1" source="nLpi9SXfjAmbnUqDCLWk-106" target="nLpi9SXfjAmbnUqDCLWk-170" edge="1">
          <mxGeometry width="50" height="50" relative="1" as="geometry">
            <mxPoint x="-1245" y="410" as="sourcePoint" />
            <mxPoint x="-1195" y="360" as="targetPoint" />
            <Array as="points">
              <mxPoint x="-1270" y="400" />
              <mxPoint x="-1225" y="400" />
            </Array>
          </mxGeometry>
        </mxCell>
        <mxCell id="nLpi9SXfjAmbnUqDCLWk-175" value="" style="endArrow=classic;html=1;rounded=0;exitX=0.5;exitY=1;exitDx=0;exitDy=0;entryX=0.5;entryY=0;entryDx=0;entryDy=0;" parent="WIyWlLk6GJQsqaUBKTNV-1" source="nLpi9SXfjAmbnUqDCLWk-108" target="nLpi9SXfjAmbnUqDCLWk-170" edge="1">
          <mxGeometry width="50" height="50" relative="1" as="geometry">
            <mxPoint x="-1245" y="410" as="sourcePoint" />
            <mxPoint x="-1195" y="360" as="targetPoint" />
            <Array as="points">
              <mxPoint x="-1175" y="400" />
              <mxPoint x="-1225" y="400" />
            </Array>
          </mxGeometry>
        </mxCell>
        <mxCell id="nLpi9SXfjAmbnUqDCLWk-176" value="" style="endArrow=classic;html=1;rounded=0;exitX=0.5;exitY=1;exitDx=0;exitDy=0;entryX=0.5;entryY=0;entryDx=0;entryDy=0;" parent="WIyWlLk6GJQsqaUBKTNV-1" source="nLpi9SXfjAmbnUqDCLWk-100" target="nLpi9SXfjAmbnUqDCLWk-170" edge="1">
          <mxGeometry width="50" height="50" relative="1" as="geometry">
            <mxPoint x="-1195" y="310" as="sourcePoint" />
            <mxPoint x="-1145" y="260" as="targetPoint" />
            <Array as="points">
              <mxPoint x="-1085" y="400" />
              <mxPoint x="-1225" y="400" />
              <mxPoint x="-1225" y="410" />
            </Array>
          </mxGeometry>
        </mxCell>
        <mxCell id="nLpi9SXfjAmbnUqDCLWk-178" value="" style="endArrow=classic;html=1;rounded=0;exitX=0.5;exitY=0.88;exitDx=0;exitDy=0;exitPerimeter=0;entryX=0.5;entryY=0;entryDx=0;entryDy=0;" parent="WIyWlLk6GJQsqaUBKTNV-1" source="nLpi9SXfjAmbnUqDCLWk-93" target="nLpi9SXfjAmbnUqDCLWk-153" edge="1">
          <mxGeometry relative="1" as="geometry">
            <mxPoint x="-1260" y="124" as="sourcePoint" />
            <mxPoint x="-1260" y="180" as="targetPoint" />
            <Array as="points">
              <mxPoint x="-940" y="150" />
              <mxPoint x="-990" y="150" />
            </Array>
          </mxGeometry>
        </mxCell>
        <mxCell id="nLpi9SXfjAmbnUqDCLWk-179" value="&lt;font style=&quot;font-size: 9px;&quot;&gt;Apilamiento&lt;/font&gt;" style="edgeLabel;resizable=0;html=1;;align=center;verticalAlign=middle;" parent="nLpi9SXfjAmbnUqDCLWk-178" connectable="0" vertex="1">
          <mxGeometry relative="1" as="geometry">
            <mxPoint x="17" as="offset" />
          </mxGeometry>
        </mxCell>
      </root>
    </mxGraphModel>
  </diagram>
</mxfile>
